<svg xmlns="http://www.w3.org/2000/svg" viewBox="0 0 800 450" role="img"><rect width="800" height="450" fill="#FFFFFF"/><rect width="800" height="14" fill="#1B6CA8"/><rect x="0" y="14" width="10" height="436" fill="#EAF2F9"/><g fill="#1B6CA8"><rect x="52" y="58" width="34" height="44" rx="5"/><rect x="60" y="70" width="18" height="4" rx="2" fill="#FFFFFF"/><rect x="60" y="80" width="18" height="4" rx="2" fill="#FFFFFF"/><rect x="60" y="90" width="12" height="4" rx="2" fill="#FFFFFF"/></g><g><rect x="618" y="56" width="132" height="34" rx="17" fill="#EAF2F9"/><circle cx="640" cy="73" r="8" fill="#1B6CA8"/><path d="M 635 73 a 5 5 0 1 1 10 0 M 637 74 h 6 v 6 h -6 z" stroke="#FFFFFF" stroke-width="2" fill="#FFFFFF"/><text x="656" y="79" font-family="Arial, Helvetica, sans-serif" font-size="16" font-weight="700" fill="#1B6CA8">Open Access</text></g><text x="110" y="92" font-family="Georgia, 'Times New Roman', serif" font-size="38" font-weight="700" fill="#1C2B36">Perceptions of effective leadership in a</text><text x="110" y="138" font-family="Georgia, 'Times New Roman', serif" font-size="38" font-weight="700" fill="#1C2B36">medical school context</text><rect x="110" y="178" width="180" height="5" rx="2.5" fill="#1B6CA8"/><text x="110" y="230" font-family="Arial, Helvetica, sans-serif" font-size="24" font-weight="600" fill="#5A6B78">Bharwani A, Kline T, Patterson M</text><text x="110" y="284" font-family="Arial, Helvetica, sans-serif" font-size="22" font-style="italic" fill="#1B6CA8">Canadian medical education journal (2019)</text><rect x="0" y="414" width="800" height="36" fill="#EAF2F9"/><text x="52" y="396" font-family="Arial, Helvetica, sans-serif" font-size="19" font-weight="700" fill="#1B6CA8"></text><text x="52" y="396" font-family="Arial, Helvetica, sans-serif" font-size="19" fill="#5A6B78">DOI unavailable</text></svg>